<svg xmlns="http://www.w3.org/2000/svg" xmlns:xlink="http://www.w3.org/1999/xlink" width="500" zoomAndPan="magnify" viewBox="0 0 375 374.999991" height="500" preserveAspectRatio="xMidYMid meet" version="1.2"><defs><clipPath id="d030377958"><path d="M 52.050781 23.484375 L 322.800781 23.484375 L 322.800781 351 L 52.050781 351 Z M 52.050781 23.484375 "/></clipPath><clipPath id="21c5672071"><path d="M 64.296875 38.5 L 310.945312 38.5 L 310.945312 322.613281 L 64.296875 322.613281 Z M 64.296875 38.5 "/></clipPath><clipPath id="fdc07101d0"><path d="M 52 290 L 95 290 L 95 334 L 52 334 Z M 52 290 "/></clipPath><clipPath id="7826dac3b1"><path d="M 52.050781 312.484375 L 75.613281 290.429688 L 94.960938 311.105469 L 71.398438 333.15625 Z M 52.050781 312.484375 "/></clipPath><clipPath id="1edff8045f"><path d="M 123 298 L 167 298 L 167 342 L 123 342 Z M 123 298 "/></clipPath><clipPath id="cee25a0448"><path d="M 123.679688 320.535156 L 147.242188 298.484375 L 166.589844 319.15625 L 143.027344 341.207031 Z M 123.679688 320.535156 "/></clipPath><clipPath id="9382cbe868"><path d="M 209 298 L 253 298 L 253 342 L 209 342 Z M 209 298 "/></clipPath><clipPath id="3076250d70"><path d="M 209.300781 320.535156 L 232.863281 298.484375 L 252.210938 319.15625 L 228.648438 341.207031 Z M 209.300781 320.535156 "/></clipPath><clipPath id="b67d04170b"><path d="M 283 292 L 320 292 L 320 332 L 283 332 Z M 283 292 "/></clipPath><clipPath id="f22fdfc70c"><path d="M 283.367188 323.289062 L 292.449219 292.324219 L 319.617188 300.292969 L 310.535156 331.257812 Z M 283.367188 323.289062 "/></clipPath><clipPath id="7b2e5605b0"><path d="M 95.347656 93.925781 L 224.789062 93.925781 L 224.789062 122.800781 L 95.347656 122.800781 Z M 95.347656 93.925781 "/></clipPath><clipPath id="82948cce90"><path d="M 244.121094 93.925781 L 279.894531 93.925781 L 279.894531 122.800781 L 244.121094 122.800781 Z M 244.121094 93.925781 "/></clipPath><clipPath id="4b0ea9694a"><path d="M 95.347656 143.976562 L 224.789062 143.976562 L 224.789062 172.851562 L 95.347656 172.851562 Z M 95.347656 143.976562 "/></clipPath><clipPath id="7a9aafccce"><path d="M 244.121094 143.976562 L 279.894531 143.976562 L 279.894531 172.851562 L 244.121094 172.851562 Z M 244.121094 143.976562 "/></clipPath><clipPath id="0766cb0a21"><path d="M 95.347656 193.851562 L 224.789062 193.851562 L 224.789062 222.726562 L 95.347656 222.726562 Z M 95.347656 193.851562 "/></clipPath><clipPath id="3277b3ab62"><path d="M 244.121094 193.851562 L 279.894531 193.851562 L 279.894531 222.726562 L 244.121094 222.726562 Z M 244.121094 193.851562 "/></clipPath></defs><g id="8ae7c31c9f"><path style=" stroke:none;fill-rule:nonzero;fill:#002e47;fill-opacity:1;" d="M 121.847656 107.648438 L 252.949219 107.648438 C 257.476562 107.648438 261.148438 103.980469 261.148438 99.449219 C 261.148438 94.917969 257.476562 91.253906 252.949219 91.253906 L 121.847656 91.253906 C 117.320312 91.253906 113.648438 94.917969 113.648438 99.449219 C 113.648438 103.980469 117.320312 107.648438 121.847656 107.648438 Z M 121.847656 107.648438 "/><path style=" stroke:none;fill-rule:nonzero;fill:#002e47;fill-opacity:1;" d="M 121.847656 159.902344 L 252.949219 159.902344 C 257.476562 159.902344 261.148438 156.238281 261.148438 151.707031 C 261.148438 147.175781 257.476562 143.507812 252.949219 143.507812 L 121.847656 143.507812 C 117.320312 143.507812 113.648438 147.175781 113.648438 151.707031 C 113.648438 156.238281 117.320312 159.902344 121.847656 159.902344 Z M 121.847656 159.902344 "/><path style=" stroke:none;fill-rule:nonzero;fill:#002e47;fill-opacity:1;" d="M 121.847656 212.160156 L 252.949219 212.160156 C 257.476562 212.160156 261.148438 208.492188 261.148438 203.960938 C 261.148438 199.429688 257.476562 195.765625 252.949219 195.765625 L 121.847656 195.765625 C 117.320312 195.765625 113.648438 199.429688 113.648438 203.960938 C 113.648438 208.492188 117.320312 212.160156 121.847656 212.160156 Z M 121.847656 212.160156 "/><path style=" stroke:none;fill-rule:nonzero;fill:#002e47;fill-opacity:1;" d="M 121.847656 264.414062 L 252.949219 264.414062 C 257.476562 264.414062 261.148438 260.746094 261.148438 256.21875 C 261.148438 251.6875 257.476562 248.019531 252.949219 248.019531 L 121.847656 248.019531 C 117.320312 248.019531 113.648438 251.6875 113.648438 256.21875 C 113.648438 260.746094 117.320312 264.414062 121.847656 264.414062 Z M 121.847656 264.414062 "/><g clip-rule="nonzero" clip-path="url(#d030377958)"><path style=" stroke:none;fill-rule:nonzero;fill:#002e47;fill-opacity:1;" d="M 314.453125 23.484375 L 60.347656 23.484375 C 55.824219 23.484375 52.152344 27.152344 52.152344 31.683594 L 52.152344 335.761719 C 52.152344 340.242188 54.605469 344.335938 58.558594 346.449219 C 62.515625 348.570312 67.289062 348.328125 70.992188 345.839844 L 102.679688 324.730469 L 138.308594 348.488281 C 140.355469 349.859375 142.699219 350.546875 145.039062 350.546875 C 147.382812 350.546875 149.722656 349.859375 151.761719 348.496094 L 187.398438 324.738281 L 223.03125 348.496094 C 227.121094 351.21875 232.40625 351.21875 236.480469 348.496094 L 272.117188 324.730469 L 303.808594 345.847656 C 307.53125 348.328125 312.292969 348.5625 316.246094 346.449219 C 320.199219 344.335938 322.652344 340.234375 322.652344 335.761719 L 322.652344 31.683594 C 322.652344 27.152344 318.980469 23.484375 314.453125 23.484375 Z M 306.257812 327.78125 L 278.816406 309.496094 C 274.75 306.808594 269.492188 306.808594 265.394531 309.511719 L 229.753906 333.28125 L 194.121094 309.519531 C 192.078125 308.160156 189.734375 307.480469 187.394531 307.480469 C 185.050781 307.480469 182.710938 308.160156 180.675781 309.519531 L 145.039062 333.273438 L 109.382812 309.496094 C 105.324219 306.808594 100.058594 306.792969 95.957031 309.511719 L 68.546875 327.773438 L 68.546875 39.878906 L 306.257812 39.878906 Z M 306.257812 327.78125 "/></g><g clip-rule="nonzero" clip-path="url(#21c5672071)"><path style=" stroke:none;fill-rule:nonzero;fill:#002e47;fill-opacity:1;" d="M 64.296875 38.5 L 310.945312 38.5 L 310.945312 322.726562 L 64.296875 322.726562 Z M 64.296875 38.5 "/></g><g clip-rule="nonzero" clip-path="url(#fdc07101d0)"><g clip-rule="nonzero" clip-path="url(#7826dac3b1)"><path style=" stroke:none;fill-rule:nonzero;fill:#002e47;fill-opacity:1;" d="M 52.050781 312.484375 L 75.628906 290.414062 L 94.976562 311.085938 L 71.398438 333.15625 Z M 52.050781 312.484375 "/></g></g><g clip-rule="nonzero" clip-path="url(#1edff8045f)"><g clip-rule="nonzero" clip-path="url(#cee25a0448)"><path style=" stroke:none;fill-rule:nonzero;fill:#002e47;fill-opacity:1;" d="M 123.679688 320.535156 L 147.257812 298.464844 L 166.605469 319.140625 L 143.027344 341.207031 Z M 123.679688 320.535156 "/></g></g><g clip-rule="nonzero" clip-path="url(#9382cbe868)"><g clip-rule="nonzero" clip-path="url(#3076250d70)"><path style=" stroke:none;fill-rule:nonzero;fill:#002e47;fill-opacity:1;" d="M 209.300781 320.535156 L 232.882812 298.464844 L 252.230469 319.140625 L 228.648438 341.207031 Z M 209.300781 320.535156 "/></g></g><g clip-rule="nonzero" clip-path="url(#b67d04170b)"><g clip-rule="nonzero" clip-path="url(#f22fdfc70c)"><path style=" stroke:none;fill-rule:nonzero;fill:#002e47;fill-opacity:1;" d="M 283.367188 323.289062 L 292.453125 292.300781 L 319.625 300.269531 L 310.535156 331.257812 Z M 283.367188 323.289062 "/></g></g><g clip-rule="nonzero" clip-path="url(#7b2e5605b0)"><path style=" stroke:none;fill-rule:nonzero;fill:#ffffff;fill-opacity:1;" d="M 95.347656 93.925781 L 224.839844 93.925781 L 224.839844 122.800781 L 95.347656 122.800781 Z M 95.347656 93.925781 "/></g><g clip-rule="nonzero" clip-path="url(#82948cce90)"><path style=" stroke:none;fill-rule:nonzero;fill:#ffffff;fill-opacity:1;" d="M 244.121094 93.925781 L 279.878906 93.925781 L 279.878906 122.800781 L 244.121094 122.800781 Z M 244.121094 93.925781 "/></g><g clip-rule="nonzero" clip-path="url(#4b0ea9694a)"><path style=" stroke:none;fill-rule:nonzero;fill:#ffffff;fill-opacity:1;" d="M 95.347656 143.976562 L 224.839844 143.976562 L 224.839844 172.851562 L 95.347656 172.851562 Z M 95.347656 143.976562 "/></g><g clip-rule="nonzero" clip-path="url(#7a9aafccce)"><path style=" stroke:none;fill-rule:nonzero;fill:#ffffff;fill-opacity:1;" d="M 244.121094 143.976562 L 279.878906 143.976562 L 279.878906 172.851562 L 244.121094 172.851562 Z M 244.121094 143.976562 "/></g><g clip-rule="nonzero" clip-path="url(#0766cb0a21)"><path style=" stroke:none;fill-rule:nonzero;fill:#ffffff;fill-opacity:1;" d="M 95.347656 193.851562 L 224.839844 193.851562 L 224.839844 222.726562 L 95.347656 222.726562 Z M 95.347656 193.851562 "/></g><g clip-rule="nonzero" clip-path="url(#3277b3ab62)"><path style=" stroke:none;fill-rule:nonzero;fill:#ffffff;fill-opacity:1;" d="M 244.121094 193.851562 L 279.878906 193.851562 L 279.878906 222.726562 L 244.121094 222.726562 Z M 244.121094 193.851562 "/></g></g></svg>